<?xml version="1.0" encoding="utf-8"?>
<!-- Generator: Adobe Illustrator 28.3.0, SVG Export Plug-In . SVG Version: 6.00 Build 0)  -->
<svg version="1.1" id="Layer_1" xmlns="http://www.w3.org/2000/svg" xmlns:xlink="http://www.w3.org/1999/xlink" x="0px" y="0px"
	 viewBox="0 0 500 500" style="enable-background:new 0 0 500 500;" xml:space="preserve">
<g>
	<g>
		<g>
			<g>
				<path d="M250,0C146.62,0,62.54,84.08,62.54,187.46C62.54,288.14,235.1,488,242.5,496.5c1.9,2.2,4.6,3.5,7.5,3.5
					c2.9,0,5.7-1.3,7.6-3.5c7.3-8.5,179.86-208.36,179.86-309.04C437.46,84.08,353.38,0,250,0z M343.18,187.46
					c0,50.99-41.19,92.68-92.28,93.18H250c-24.5,0-47.59-9.5-65.19-26.69c-17.8-17.5-27.69-40.79-27.89-65.59
					c-0.5-51.39,40.89-93.58,92.28-94.08c24.6,0,48.29,9.3,66.09,26.69c17.8,17.5,27.69,40.79,27.89,65.59V187.46z"/>
			</g>
		</g>
	</g>
</g>
</svg>
