<svg xmlns="http://www.w3.org/2000/svg" width="21.136" height="19.732" viewBox="0 0 21.136 19.732"><g id="chat" transform="translate(0 -16.996)"><path id="Path_34147" data-name="Path 34147" d="M13.755,21.043A7.25,7.25,0,0,0,0,24.22a7.146,7.146,0,0,0,.691,3.087L.013,30.7a.62.62,0,0,0,.727.729l3.438-.68a7.123,7.123,0,0,0,1.434.5A8.471,8.471,0,0,1,13.755,21.043Z" transform="translate(0)" fill="#fff"></path><path id="Path_34148" data-name="Path 34148" d="M175.285,155.314a7.2,7.2,0,0,0,.31-.764h-.023a7.232,7.232,0,0,0-6.5-9.538h0a7.224,7.224,0,1,0-.347,14.44,7.145,7.145,0,0,0,3.078-.691c3.765.744,3.471.691,3.558.691a.619.619,0,0,0,.607-.741Z" transform="translate(-154.841 -122.722)" fill="#fff"></path></g></svg>