<?xml version="1.0" encoding="UTF-8"?>
<svg id="Layer_2" data-name="Layer 2" xmlns="http://www.w3.org/2000/svg" viewBox="0 0 79.74 79.45">
  <defs>
    <style>
      .cls-1 {
        fill: #081e3e;
      }
    </style>
  </defs>
  <g id="Layer_1-2" data-name="Layer 1">
    <g>
      <path class="cls-1" d="M76.12.84c-.69,0-1.36.2-1.95.57-1.72,1.11-3.64,1.67-5.7,1.67-2.54,0-5.23-.86-7.77-2.48-.6-.39-1.31-.59-2.02-.59s-1.42.2-2.03.59c-2.29,1.46-4.84,2.23-7.37,2.23s-5.09-.77-7.38-2.23c-.6-.39-1.31-.59-2.02-.59s-1.42.2-2.03.59c-2.29,1.46-4.84,2.23-7.37,2.23s-5.09-.77-7.38-2.23c-.6-.39-1.31-.59-2.02-.59s-1.42.2-2.03.59c-2.54,1.62-5.23,2.48-7.77,2.48-2.05,0-3.97-.57-5.7-1.67-.59-.37-1.26-.57-1.95-.57C1.62.84,0,2.46,0,4.45v69.73c0,2.9,2.36,5.27,5.27,5.27h69.21c2.9,0,5.27-2.36,5.27-5.27V4.45c0-1.99-1.62-3.62-3.62-3.62M77.48,74.19c0,1.66-1.35,3.01-3.01,3.01H5.27c-1.66,0-3.01-1.35-3.01-3.01V4.45c0-.8.65-1.36,1.35-1.36.25,0,.5.07.73.22,2.19,1.4,4.54,2.02,6.92,2.02,3.08,0,6.2-1.05,8.99-2.84.25-.16.53-.23.81-.23s.56.08.81.23c2.71,1.73,5.65,2.6,8.6,2.6s5.88-.87,8.59-2.6c.25-.16.53-.23.81-.23s.56.08.81.23c2.71,1.73,5.65,2.6,8.6,2.6s5.88-.87,8.59-2.6c.25-.16.53-.23.81-.23s.56.08.8.23c2.79,1.79,5.91,2.84,8.99,2.84,2.38,0,4.74-.62,6.92-2.02.23-.15.48-.22.73-.22.71,0,1.36.56,1.36,1.36v69.73Z"/>
      <path class="cls-1" d="M58.29,36.08c-.29.62-.5,1.29-.62,1.96l-.83,4.83c-.11.71-.35,1.39-.68,2.03-2.12,4.05-3.63,5.09-1.98,9.1.96,2.34.54,5.02-1.09,6.95l-2.26,2.78-1.86,7.45h22.48V26.12c-9.06,1.29-9.09,1.27-13.17,9.95M69.2,68.92h-17.33l1.04-4.16,1.93-2.37c2.17-2.59,2.72-6.12,1.44-9.24-.92-2.24-.63-2.74.74-5.12.35-.6.74-1.28,1.16-2.08.44-.85.74-1.76.9-2.71l.83-4.82c.08-.47.23-.94.44-1.39,1.95-4.14,2.85-6,4.02-6.89.91-.68,2.35-1.02,4.85-1.41v40.18Z"/>
      <path class="cls-1" d="M29.15,61.03c-.23-1.23-.74-2.37-1.52-3.35l-.99-1.24c-1.64-1.93-2.05-4.61-1.1-6.95,1.9-4.62-2.01-6.93-4.88-10.81-.6-.82-1.02-1.76-1.21-2.76-.5-2.66-.73-4.67-1.67-6.72-.62-1.35-1.88-2.26-3.27-2.81l-6.23-2.42v47.2h22.72l-1.84-10.15ZM10.53,27.28l3.16,1.23c.58.23,1.62.74,2.04,1.64.64,1.4.9,2.86,1.23,4.72.08.47.17.96.27,1.48.25,1.32.8,2.6,1.61,3.69.74.99,1.51,1.86,2.25,2.69,2.47,2.79,3.2,3.86,2.36,5.91-1.29,3.11-.74,6.66,1.44,9.24l.97,1.22c.54.68.91,1.49,1.07,2.35l1.36,7.48H10.53V27.28Z"/>
      <path class="cls-1" d="M68.07,11.46c-3.27,0-6.54-.81-9.49-2.45-2.94,1.45-6.13,2.17-9.32,2.17s-6.45-.74-9.4-2.22c-2.96,1.48-6.18,2.22-9.4,2.22s-6.39-.73-9.32-2.17c-2.95,1.63-6.22,2.45-9.49,2.45-1.13,0-2.26-.1-3.38-.29v6.39s.04.02.07.02l10.03,3.73c5.45,2.03,6.15,9.01,7.12,13.79l5.75,7.76c1.41,1.91,1.72,4.42.82,6.61-1.22,2.96-.93,2.97,1.18,5.46.76.9,1.28,1.99,1.49,3.16l2.38,13.09h5.67l2.23-8.91c.26-1.01.73-1.94,1.4-2.73,2.29-2.71,2.46-2.66,1.13-5.9-.77-1.85-.67-3.94.26-5.72l2.57-4.99c.36-.69.61-1.44.74-2.22l.75-4.48c.1-.62.3-1.23.57-1.8l3.4-7.14c3.11-6.54,9.32-6.34,15.64-7.24v-8.88c-1.12.2-2.26.29-3.39.29M69.2,18.07c-.18.02-.35.04-.53.06-5.47.65-11.66,1.4-14.89,8.19l-3.4,7.14c-.36.76-.62,1.57-.75,2.39l-.75,4.49c-.09.54-.26,1.07-.51,1.55l-2.58,4.99c-1.23,2.36-1.36,5.14-.35,7.61.22.53.6,1.47.66,1.83-.14.26-.65.86-1.11,1.39l-.32.37c-.89,1.05-1.53,2.31-1.87,3.64l-1.8,7.2h-2.02l-2.05-11.24c-.28-1.55-.97-3.01-1.99-4.21l-.43-.5c-.37-.44-.78-.92-.93-1.15.05-.24.22-.74.53-1.5,1.2-2.91.78-6.28-1.09-8.81l-5.45-7.35c-.07-.35-.14-.71-.2-1.08-.92-4.91-2.17-11.63-8.25-13.89l-8.63-3.21v-2.29c.38.02.75.03,1.13.03,3.3,0,6.58-.75,9.54-2.19,2.91,1.26,6.09,1.92,9.27,1.92s6.45-.68,9.4-1.98c2.95,1.29,6.18,1.98,9.4,1.98s6.35-.66,9.26-1.92c2.96,1.44,6.24,2.19,9.55,2.19.38,0,.75,0,1.13-.02v4.37Z"/>
    </g>
  </g>
</svg>