<?xml version="1.0" encoding="UTF-8"?>
<svg id="Layer_2" data-name="Layer 2" xmlns="http://www.w3.org/2000/svg" viewBox="0 0 79.57 79.57">
  <defs>
    <style>
      .cls-1 {
        fill: #081e3e;
      }
    </style>
  </defs>
  <g id="Layer_1-2" data-name="Layer 1">
    <g>
      <path class="cls-1" d="M39.79,76.25c-20.11,0-36.47-16.36-36.47-36.47S19.68,3.32,39.79,3.32s36.47,16.36,36.47,36.47-16.36,36.47-36.47,36.47M39.79,6.63C21.5,6.63,6.63,21.5,6.63,39.78s14.87,33.15,33.15,33.15,33.15-14.87,33.15-33.15S58.07,6.63,39.79,6.63"/>
      <path class="cls-1" d="M39.79,13.26c-.92,0-1.66-.74-1.66-1.66V1.66c0-.92.74-1.66,1.66-1.66s1.66.74,1.66,1.66v9.95c0,.92-.74,1.66-1.66,1.66"/>
      <path class="cls-1" d="M39.79,79.57c-.92,0-1.66-.74-1.66-1.66v-9.95c0-.92.74-1.66,1.66-1.66s1.66.74,1.66,1.66v9.95c0,.92-.74,1.66-1.66,1.66"/>
      <path class="cls-1" d="M77.91,41.44h-9.95c-.92,0-1.66-.74-1.66-1.66s.74-1.66,1.66-1.66h9.95c.92,0,1.66.74,1.66,1.66s-.74,1.66-1.66,1.66"/>
      <path class="cls-1" d="M11.6,41.44H1.66c-.92,0-1.66-.74-1.66-1.66s.74-1.66,1.66-1.66h9.95c.92,0,1.66.74,1.66,1.66s-.74,1.66-1.66,1.66"/>
      <path class="cls-1" d="M39.79,41.44c-4.57,0-8.29-3.72-8.29-8.29s3.72-8.29,8.29-8.29,8.29,3.72,8.29,8.29-3.72,8.29-8.29,8.29M39.79,28.18c-2.74,0-4.97,2.23-4.97,4.97s2.23,4.97,4.97,4.97,4.97-2.23,4.97-4.97-2.23-4.97-4.97-4.97"/>
      <path class="cls-1" d="M39.79,62.99c-.52,0-1.02-.25-1.33-.66-1.56-2.09-15.25-20.63-15.25-29.17,0-9.14,7.44-16.58,16.58-16.58s16.58,7.44,16.58,16.58c0,8.54-13.69,27.09-15.25,29.17-.31.42-.8.66-1.33.66M39.79,19.89c-7.31,0-13.26,5.95-13.26,13.26,0,5.7,8.61,18.89,13.26,25.37,4.65-6.48,13.26-19.67,13.26-25.37,0-7.31-5.95-13.26-13.26-13.26"/>
    </g>
  </g>
</svg>