<?xml version="1.0" encoding="UTF-8"?>
<svg id="Layer_2" data-name="Layer 2" xmlns="http://www.w3.org/2000/svg" viewBox="0 0 80.28 80.28">
  <defs>
    <style>
      .cls-1 {
        fill: #ffffff;
      }
    </style>
  </defs>
  <g id="Layer_1-2" data-name="Layer 1">
    <g>
      <path class="cls-1" d="M79,23.27c-2.17,0-4.15-1.01-5.45-2.76-.24-.33-.62-.52-1.03-.52s-.79.19-1.03.52c-1.27,1.73-3.31,2.76-5.44,2.76s-4.17-1.03-5.45-2.76c-.24-.33-.62-.52-1.03-.52s-.79.19-1.03.52c-1.28,1.73-3.32,2.76-5.45,2.76s-4.14-1.01-5.44-2.76c-.24-.33-.62-.52-1.03-.52s-.79.19-1.03.52c-1.28,1.73-3.32,2.76-5.45,2.76s-4.17-1.03-5.44-2.76c-.24-.33-.62-.52-1.03-.52-.41,0-.79.19-1.03.52-1.3,1.76-3.29,2.76-5.45,2.76s-4.17-1.03-5.44-2.76c-.24-.33-.62-.52-1.03-.52s-.79.19-1.03.52c-1.28,1.73-3.32,2.76-5.45,2.76s-4.16-1.03-5.44-2.76c-.24-.33-.62-.52-1.03-.52s-.79.19-1.03.52c-1.3,1.76-3.28,2.76-5.45,2.76-.71,0-1.28.57-1.28,1.28s.57,1.28,1.28,1.28c2.42,0,4.75-.96,6.48-2.63,1.73,1.67,4.06,2.63,6.47,2.63s4.75-.96,6.48-2.63c1.73,1.67,4.05,2.63,6.47,2.63s4.75-.94,6.48-2.62c1.73,1.66,4.05,2.62,6.47,2.62s4.75-.96,6.47-2.62c1.73,1.68,4.02,2.62,6.48,2.62s4.75-.96,6.48-2.63c1.73,1.67,4.06,2.63,6.48,2.63s4.75-.96,6.47-2.63c1.73,1.67,4.06,2.63,6.48,2.63.71,0,1.28-.57,1.28-1.28s-.57-1.28-1.28-1.28"/>
      <path class="cls-1" d="M29.73,19.25c.71,0,1.28-.57,1.28-1.28v-.65c0-2.49,2.02-4.51,4.51-4.51h9.24c2.49,0,4.51,2.02,4.51,4.51v.64c0,.71.57,1.28,1.28,1.28s1.28-.57,1.28-1.28v-.64c0-3.9-3.17-7.07-7.07-7.07h-.43v-3.84c0-.71-.57-1.28-1.28-1.28s-1.28.57-1.28,1.28v3.84h-3.26v-5.55c0-2.59-2.11-4.7-4.7-4.7h-2.38c-.71,0-1.28.57-1.28,1.28s.57,1.28,1.28,1.28h2.38c1.18,0,2.14.96,2.14,2.14v5.55h-.43c-3.9,0-7.07,3.17-7.07,7.07v.65c0,.71.57,1.28,1.28,1.28"/>
      <path class="cls-1" d="M71.66,53.62h-6.17c-.46-9.24-5.89-17.19-13.66-21.24v-2.96c0-.71-.57-1.28-1.28-1.28s-1.28.57-1.28,1.28v1.8c-2.83-1.1-5.91-1.7-9.13-1.7s-6.3.6-9.13,1.7v-1.8c0-.71-.57-1.28-1.28-1.28s-1.28.57-1.28,1.28v2.96c-7.77,4.05-13.19,12-13.66,21.24h-6.17c-.71,0-1.28.57-1.28,1.28s.57,1.28,1.28,1.28h6.17c.67,13.4,11.78,24.1,25.35,24.1s24.68-10.7,25.35-24.1h6.17c.71,0,1.28-.57,1.28-1.28s-.57-1.28-1.28-1.28M40.14,77.72c-12.58,0-22.82-10.24-22.82-22.82s10.24-22.82,22.82-22.82,22.82,10.24,22.82,22.82-10.24,22.82-22.82,22.82"/>
      <path class="cls-1" d="M40.14,39.17c.75,0,1.36-.61,1.36-1.36s-.61-1.36-1.36-1.36-1.37.61-1.37,1.36.61,1.36,1.37,1.36"/>
      <path class="cls-1" d="M28.05,44.18c.36,0,.71-.14.96-.4.53-.53.53-1.4,0-1.93-.26-.26-.6-.4-.96-.4s-.71.14-.97.4c-.53.53-.53,1.39,0,1.93.26.26.6.4.97.4"/>
      <path class="cls-1" d="M23.05,53.53c-.75,0-1.37.61-1.37,1.37s.61,1.36,1.37,1.36,1.36-.61,1.36-1.36-.61-1.37-1.36-1.37"/>
      <path class="cls-1" d="M28.05,65.62c-.37,0-.71.14-.97.4-.53.53-.53,1.4,0,1.93.26.26.6.4.96.4s.7-.14.96-.4c.53-.53.53-1.4,0-1.93-.26-.26-.6-.4-.96-.4"/>
      <path class="cls-1" d="M40.14,70.51c-.75,0-1.37.61-1.37,1.37s.61,1.37,1.37,1.37,1.37-.61,1.37-1.37-.61-1.37-1.37-1.37"/>
      <path class="cls-1" d="M52.23,65.62c-.37,0-.71.14-.97.4-.53.53-.53,1.4,0,1.93.26.26.6.4.96.4s.7-.14.97-.4c.53-.53.53-1.39,0-1.93-.26-.26-.6-.4-.96-.4"/>
      <path class="cls-1" d="M55.87,54.9c0,.75.61,1.37,1.36,1.37s1.36-.61,1.36-1.37-.61-1.36-1.36-1.36-1.36.61-1.36,1.36"/>
      <path class="cls-1" d="M52.23,44.18c.36,0,.71-.14.97-.4.53-.53.53-1.4,0-1.93-.26-.26-.6-.4-.96-.4s-.71.14-.97.4c-.53.53-.53,1.4,0,1.93.26.26.6.4.97.4"/>
      <path class="cls-1" d="M52.18,56.21c-.69-.15-1.37.29-1.52.98-1.06,4.91-5.49,8.48-10.52,8.48-5.94,0-10.77-4.83-10.77-10.77s4.83-10.77,10.77-10.77c5.03,0,9.46,3.57,10.52,8.48.15.69.83,1.13,1.52.98.69-.15,1.13-.83.98-1.52-.64-2.93-2.27-5.59-4.6-7.5-2.37-1.93-5.36-3-8.42-3-7.35,0-13.33,5.98-13.33,13.33s5.98,13.33,13.33,13.33c3.06,0,6.05-1.07,8.42-3,2.33-1.91,3.97-4.57,4.6-7.5.15-.69-.29-1.37-.98-1.52"/>
    </g>
  </g>
</svg>