<?xml version="1.0" encoding="UTF-8"?>
<svg id="Layer_2" data-name="Layer 2" xmlns="http://www.w3.org/2000/svg" viewBox="0 0 76.81 76.81">
  <defs>
    <style>
      .cls-1 {
        fill: #081e3e;
      }
    </style>
  </defs>
  <g id="Layer_1-2" data-name="Layer 1">
    <g>
      <path class="cls-1" d="M38.4,76.81c-8.59,0-16.71-2.77-23.49-8.02l1.38-1.78c6.38,4.94,14.02,7.55,22.11,7.55,9.66,0,18.74-3.76,25.56-10.59s10.59-15.91,10.59-25.56-3.76-18.74-10.59-25.56S48.06,2.25,38.4,2.25s-18.74,3.76-25.56,10.59S2.25,28.75,2.25,38.4s3.76,18.73,10.59,25.56l-1.59,1.59C3.99,58.3,0,48.66,0,38.4S3.99,18.5,11.25,11.25C18.5,3.99,28.15,0,38.4,0s19.9,3.99,27.15,11.25c7.25,7.25,11.25,16.9,11.25,27.16s-3.99,19.9-11.25,27.15c-7.25,7.25-16.9,11.25-27.15,11.25"/>
      <path class="cls-1" d="M59.11,51.92l-1.88-1.23c2.39-3.65,3.65-7.9,3.65-12.29,0-5.98-2.32-11.61-6.54-15.85l1.6-1.59c4.64,4.66,7.19,10.86,7.19,17.44,0,4.83-1.39,9.5-4.02,13.52"/>
      <path class="cls-1" d="M38.4,63.13c-13.64,0-24.73-11.09-24.73-24.73s11.09-24.73,24.73-24.73v2.25c-12.4,0-22.48,10.08-22.48,22.48s10.08,22.48,22.48,22.48c5.39,0,10.6-1.94,14.68-5.45l1.47,1.7c-4.48,3.87-10.22,6-16.15,6"/>
      <path class="cls-1" d="M38.4,49.65c-6.21,0-11.25-5.05-11.25-11.25,0-2.09.58-4.13,1.67-5.9l1.92,1.18c-.87,1.41-1.33,3.05-1.33,4.72,0,4.96,4.04,9,9,9s9-4.04,9-9c0-2.38-.92-4.63-2.59-6.33l1.6-1.58c2.09,2.12,3.24,4.93,3.24,7.91,0,6.2-5.05,11.25-11.25,11.25"/>
      <path class="cls-1" d="M33.68,30.73l-1.18-1.91c1.77-1.09,3.81-1.67,5.9-1.67v2.25c-1.67,0-3.3.46-4.72,1.33"/>
      <rect class="cls-1" x="37.27" y="58.65" width="2.25" height="17.03"/>
      <rect class="cls-1" x="37.27" y="54.19" width="2.25" height="2.21"/>
      <rect class="cls-1" x="37.27" y="1.12" width="2.25" height="50.78"/>
      <rect class="cls-1" x="1.13" y="37.28" width="74.56" height="2.25"/>
      <rect class="cls-1" x="33.05" y="24.12" width="37.21" height="2.25" transform="translate(-2.72 43.92) rotate(-45)"/>
      <path class="cls-1" d="M56.4,58.63c-2.47,0-4.47-2.01-4.47-4.47s2.01-4.47,4.47-4.47,4.47,2.01,4.47,4.47-2.01,4.47-4.47,4.47M56.4,51.93c-1.23,0-2.22,1-2.22,2.22s1,2.22,2.22,2.22,2.22-1,2.22-2.22-1-2.22-2.22-2.22"/>
      <path class="cls-1" d="M13.65,70.06c-1.93,0-3.49-1.57-3.49-3.49s1.57-3.49,3.49-3.49,3.49,1.57,3.49,3.49-1.57,3.49-3.49,3.49M13.65,65.32c-.69,0-1.24.56-1.24,1.24s.56,1.24,1.24,1.24,1.24-.56,1.24-1.24-.56-1.24-1.24-1.24"/>
      <path class="cls-1" d="M31.65,35.15c-1.93,0-3.49-1.57-3.49-3.49s1.57-3.49,3.49-3.49,3.49,1.57,3.49,3.49-1.57,3.49-3.49,3.49M31.65,30.41c-.69,0-1.24.56-1.24,1.24s.56,1.24,1.24,1.24,1.24-.56,1.24-1.24-.56-1.24-1.24-1.24"/>
    </g>
  </g>
</svg>