<?xml version="1.0" encoding="UTF-8"?>
<svg id="Layer_2" data-name="Layer 2" xmlns="http://www.w3.org/2000/svg" viewBox="0 0 85.81 63.39">
  <defs>
    <style>
      .cls-1 {
        fill: #081e3e;
      }
    </style>
  </defs>
  <g id="Layer_1-2" data-name="Layer 1">
    <g>
      <path class="cls-1" d="M53.3,22.35c-.69,0-1.26-.56-1.26-1.26V1.26c0-.69.56-1.26,1.26-1.26s1.26.56,1.26,1.26v19.84c0,.69-.56,1.26-1.26,1.26"/>
      <path class="cls-1" d="M60.1,22.35c-.69,0-1.26-.56-1.26-1.26v-7.1c0-.69.56-1.26,1.26-1.26s1.26.56,1.26,1.26v7.1c0,.69-.56,1.26-1.26,1.26"/>
      <path class="cls-1" d="M68.87,35.24c-.52,0-1-.32-1.18-.83l-3.73-10.38c-.32-.9-1.18-1.5-2.13-1.5h-10.25c-.95,0-1.81.6-2.13,1.5l-.39,1.09c-.23.65-.95.99-1.61.76-.65-.23-.99-.95-.76-1.61l.39-1.09c.68-1.89,2.49-3.16,4.5-3.16h10.25c2.01,0,3.82,1.27,4.5,3.16l3.73,10.38c.23.65-.11,1.37-.76,1.61-.14.05-.28.07-.42.07"/>
      <path class="cls-1" d="M44.61,35.04c-.14,0-.28-.02-.43-.07-.65-.23-.99-.95-.76-1.61l1.3-3.61c.24-.65.96-.99,1.61-.76.65.23.99.95.76,1.61l-1.3,3.61c-.18.51-.67.83-1.18.83"/>
      <path class="cls-1" d="M65.99,28.69h-9.29c-.69,0-1.26-.56-1.26-1.26s.56-1.26,1.26-1.26h9.29c.69,0,1.26.56,1.26,1.26s-.56,1.26-1.26,1.26"/>
      <path class="cls-1" d="M3.66,56.88c-.69,0-1.26-.56-1.26-1.26v-7.85c0-.69.56-1.26,1.26-1.26s1.26.56,1.26,1.26v7.85c0,.69-.56,1.26-1.26,1.26"/>
      <path class="cls-1" d="M3.66,44.43c-.69,0-1.26-.56-1.26-1.26v-7.88c0-.69.56-1.26,1.26-1.26s1.26.56,1.26,1.26v7.88c0,.69-.56,1.26-1.26,1.26"/>
      <path class="cls-1" d="M8.4,42.25c-.69,0-1.26-.56-1.26-1.26v-10.01c0-1.92,1.56-3.47,3.47-3.47h5.56c1.21,0,2.35.65,2.98,1.69l3.48,5.8c.36.6.16,1.37-.43,1.72-.59.36-1.37.16-1.72-.43l-3.48-5.8c-.17-.29-.49-.47-.82-.47h-5.56c-.53,0-.96.43-.96.96v10.01c0,.69-.56,1.26-1.26,1.26"/>
      <path class="cls-1" d="M16.16,63.39h-5.54c-1.92,0-3.47-1.56-3.47-3.47v-9.89c0-.7.56-1.26,1.26-1.26s1.26.56,1.26,1.26v9.89c0,.53.43.96.96.96h5.54c.34,0,.66-.18.83-.47l3.33-5.67c.35-.6,1.12-.8,1.72-.45.6.35.8,1.12.45,1.72l-3.32,5.67c-.62,1.06-1.77,1.72-3,1.72"/>
      <path class="cls-1" d="M60.03,57.98H27.04c-1.17,0-2.3-.23-3.37-.68L1.79,48.15c-1.09-.45-1.79-1.51-1.79-2.69s.7-2.24,1.79-2.69l21.87-9.15c1.08-.45,2.21-.68,3.37-.68h4.81c.69,0,1.26.56,1.26,1.26s-.56,1.26-1.26,1.26h-4.81c-.83,0-1.64.16-2.4.48L2.76,45.08c-.2.09-.25.25-.25.37s.04.29.25.37l21.87,9.15c.77.32,1.57.48,2.4.48h33c.69,0,1.26.56,1.26,1.26s-.56,1.26-1.26,1.26"/>
      <path class="cls-1" d="M73.28,57.98h-7.77c-.69,0-1.26-.56-1.26-1.26s.56-1.26,1.26-1.26h7.77c5.52,0,10.01-4.49,10.01-10.01s-4.49-10.01-10.01-10.01h-35.96c-.69,0-1.26-.56-1.26-1.26s.56-1.26,1.26-1.26h35.96c6.9,0,12.52,5.62,12.52,12.52s-5.62,12.52-12.52,12.52"/>
      <path class="cls-1" d="M69.57,50.28c-.26,0-.52-.02-.78-.06-2.63-.43-4.42-2.91-3.99-5.54.21-1.27.9-2.39,1.94-3.14,1.05-.75,2.32-1.05,3.59-.85,2.63.43,4.42,2.91,3.99,5.53-.38,2.37-2.44,4.05-4.76,4.05M67.28,45.08c-.2,1.26.65,2.45,1.91,2.65,1.26.2,2.45-.65,2.65-1.91.21-1.26-.65-2.45-1.91-2.65-1.26-.2-2.45.65-2.65,1.91"/>
      <path class="cls-1" d="M53.14,50.28c-.26,0-.52-.02-.78-.06-2.63-.43-4.42-2.91-3.99-5.54.21-1.27.9-2.39,1.94-3.14,1.05-.75,2.32-1.05,3.59-.85,2.63.43,4.42,2.91,3.99,5.54-.38,2.37-2.44,4.05-4.76,4.05M53.13,43.14c-1.11,0-2.1.81-2.28,1.94-.2,1.26.65,2.45,1.91,2.65,1.26.21,2.45-.65,2.65-1.91.2-1.26-.65-2.45-1.91-2.65-.12-.02-.25-.03-.37-.03"/>
      <path class="cls-1" d="M36.72,50.28c-.37,0-.75-.04-1.12-.13-1.25-.3-2.32-1.06-2.99-2.16-.68-1.1-.89-2.39-.59-3.64.61-2.59,3.22-4.2,5.8-3.59,1.25.3,2.32,1.06,2.99,2.16.68,1.1.89,2.39.59,3.64-.3,1.25-1.06,2.32-2.16,2.99-.77.48-1.64.72-2.53.72M34.46,44.93h0c-.29,1.24.48,2.49,1.72,2.78.6.14,1.22.04,1.75-.28.52-.32.89-.83,1.03-1.43.14-.6.04-1.22-.28-1.75-.32-.53-.83-.89-1.44-1.03-1.24-.29-2.49.48-2.78,1.72"/>
    </g>
  </g>
</svg>