<?xml version="1.0" encoding="UTF-8"?>
<svg id="Layer_2" data-name="Layer 2" xmlns="http://www.w3.org/2000/svg" viewBox="0 0 82.28 78.22">
  <defs>
    <style>
      .cls-1 {
        fill: #081e3e;
      }
    </style>
  </defs>
  <g id="Layer_1-2" data-name="Layer 1">
    <path class="cls-1" d="M81.01,73.5c-2.37.09-3.72.7-4.91,1.24-1.23.56-2.29,1.03-4.56,1.03-1.88,0-2.93-.33-3.93-.76l12.03-28.48c.34-.81.35-1.7.01-2.51-.33-.81-.96-1.44-1.78-1.77l-9.13-3.76-1.04-8.88c-.08-.67-.69-1.15-1.36-1.08-.67.08-1.15.69-1.07,1.36l.88,7.53-24.54-10.1c-.3-.12-.63-.12-.93,0l-24.54,10.1,2.28-19.57c.13-1.1,1.06-1.93,2.17-1.93h41.11c1.11,0,2.04.83,2.17,1.93l.75,6.45c.08.67.69,1.16,1.36,1.08.67-.08,1.15-.69,1.08-1.36l-.75-6.45c-.27-2.33-2.25-4.09-4.6-4.09h-4.45v-4.19c0-1.74-1.42-3.16-3.16-3.16h-7.65v-3.61c0-1.4-1.14-2.53-2.53-2.53h-5.54c-1.4,0-2.53,1.13-2.53,2.53v3.61h-7.65c-1.74,0-3.16,1.42-3.16,3.16v4.19h-4.45c-2.35,0-4.33,1.76-4.6,4.09l-2.44,20.92-9.13,3.76c-.81.33-1.44.96-1.78,1.78-.33.81-.33,1.7.01,2.51l12.03,28.48c-1.01.43-2.06.76-3.94.76-2.27,0-3.33-.48-4.56-1.03-1.19-.54-2.54-1.15-4.91-1.24-.68-.03-1.25.5-1.27,1.18-.03.68.5,1.25,1.18,1.27,1.9.08,2.87.52,4,1.02,1.3.59,2.77,1.25,5.57,1.25s4.27-.66,5.57-1.25c.15-.07.3-.14.45-.2h0s.05-.02.07-.03c.04-.02.09-.04.13-.06.02,0,.04-.02.06-.03.06-.02.11-.05.17-.07l.04-.02c.07-.03.14-.05.21-.08,0,0,.01,0,.02,0,.31-.11.63-.22.99-.3.03,0,.06-.01.09-.02.06-.01.11-.03.17-.04.04,0,.09-.02.14-.03s.09-.02.14-.03c.05,0,.11-.02.16-.02.04,0,.09-.01.13-.02.06,0,.11-.02.17-.02.05,0,.09-.01.14-.02.06,0,.12-.01.18-.02.05,0,.11,0,.16-.01.06,0,.12,0,.18-.01.07,0,.14,0,.21,0,.05,0,.1,0,.15,0,.13,0,.26,0,.39,0,2.27,0,3.33.48,4.56,1.03.1.04.2.09.3.14,1.23.55,2.69,1.12,5.27,1.12,2.27,0,3.67-.44,4.81-.92.26-.11.51-.22.76-.33,1.23-.55,2.29-1.03,4.56-1.03s3.33.48,4.56,1.03c1.3.59,2.77,1.25,5.57,1.25,2.57,0,4.03-.56,5.26-1.11.11-.05.21-.09.31-.14,1.23-.55,2.29-1.03,4.56-1.03.13,0,.26,0,.39,0,.05,0,.1,0,.15,0,.07,0,.14,0,.21,0,.06,0,.12,0,.18.01.05,0,.11,0,.16.01.06,0,.12.01.18.02.05,0,.09,0,.14.02.06,0,.12.01.18.02.04,0,.09.01.13.02.06,0,.11.02.16.03.04,0,.09.02.13.02.05,0,.09.02.14.03.06.01.11.02.16.03.03,0,.06.01.1.02.27.06.52.14.76.22h0c.08.03.16.05.23.08,0,0,.01,0,.02,0,.07.03.14.05.2.08.01,0,.02.01.04.02.06.02.12.05.17.07.02,0,.04.02.06.02.05.02.1.04.15.06.02,0,.04.02.06.03h0c.15.07.3.13.45.2,1.3.59,2.77,1.25,5.57,1.25s4.27-.66,5.57-1.25c1.13-.51,2.1-.95,4-1.02.68-.03,1.2-.6,1.18-1.27-.03-.68-.6-1.2-1.27-1.18M38.29,2.53h0s.04-.08.08-.08h5.54s.08.04.08.08v3.61h-5.7v-3.61ZM27.48,9.29c0-.39.32-.71.71-.71h25.9c.39,0,.71.32.71.71v4.19h-27.32v-4.19ZM65.34,74.07c-.57-.19-1.24-.36-2.05-.47-.01,0-.03,0-.04,0-.13-.02-.26-.03-.4-.04-.01,0-.02,0-.04,0-.12-.01-.25-.02-.39-.03-.02,0-.04,0-.06,0-.14,0-.28-.01-.42-.02-.03,0-.06,0-.09,0-.15,0-.3,0-.46,0-2.8,0-4.27.66-5.57,1.25-1.23.56-2.29,1.03-4.56,1.03s-3.33-.48-4.56-1.03c-1.3-.59-2.77-1.25-5.57-1.25s-4.27.66-5.57,1.25c-1.23.56-2.29,1.03-4.56,1.03s-3.33-.48-4.56-1.03c-1.22-.55-2.59-1.17-5.06-1.24-.17,0-.33,0-.51,0-.16,0-.31,0-.46,0-.03,0-.06,0-.09,0-.14,0-.29.01-.42.02-.02,0-.04,0-.06,0-.13,0-.27.02-.39.03-.01,0-.02,0-.03,0-.14.01-.27.03-.4.04-.01,0-.02,0-.03,0-.81.11-1.47.28-2.05.47l-10.18-24.09,4.62-1.81c.63-.25.94-.96.69-1.59-.25-.63-.96-.94-1.59-.69l-4.68,1.83-.9-2.14c-.09-.2-.09-.42,0-.62.08-.2.24-.36.44-.44l35.79-14.73,35.79,14.73c.2.08.36.24.44.44.08.2.08.42,0,.62l-.9,2.14-34.88-13.68c-.29-.11-.61-.11-.89,0l-24.9,9.77c-.63.25-.94.96-.69,1.59.25.63.96.94,1.59.69l24.45-9.59,34.37,13.48-10.18,24.09Z"/>
  </g>
</svg>