<?xml version="1.0" encoding="utf-8"?>
<!-- Generator: Adobe Illustrator 28.3.0, SVG Export Plug-In . SVG Version: 6.00 Build 0)  -->
<svg version="1.1" id="Layer_1" xmlns="http://www.w3.org/2000/svg" xmlns:xlink="http://www.w3.org/1999/xlink" x="0px" y="0px"
	 viewBox="0 0 150.6 1937.4" style="enable-background:new 0 0 150.6 1937.4;" xml:space="preserve">
<style type="text/css">
	.st0{opacity:0.3;}
	.st1{fill:none;stroke:#FFFFFF;stroke-width:15;stroke-miterlimit:10;}
</style>
<g>
	<g class="st0">
		<line class="st1" x1="5.7" y1="224.3" x2="97.7" y2="224.3"/>
		<line class="st1" x1="5.7" y1="118" x2="97.7" y2="118"/>
		<line class="st1" x1="5.7" y1="330.5" x2="97.7" y2="330.5"/>
		<line class="st1" x1="5.7" y1="436.8" x2="97.7" y2="436.8"/>
		<line class="st1" x1="5.7" y1="543.1" x2="97.7" y2="543.1"/>
		<line class="st1" x1="5.7" y1="862" x2="97.7" y2="862"/>
		<line class="st1" x1="5.7" y1="755.6" x2="97.7" y2="755.6"/>
		<line class="st1" x1="5.7" y1="968.3" x2="97.7" y2="968.3"/>
		<line class="st1" x1="5.7" y1="1074.6" x2="97.7" y2="1074.6"/>
		<line class="st1" x1="5.7" y1="1180.8" x2="97.7" y2="1180.8"/>
		<line class="st1" x1="5.7" y1="1499.6" x2="97.7" y2="1499.6"/>
		<line class="st1" x1="5.7" y1="1393.4" x2="97.7" y2="1393.4"/>
		<line class="st1" x1="5.7" y1="1605.9" x2="97.7" y2="1605.9"/>
		<line class="st1" x1="5.7" y1="1712.2" x2="97.7" y2="1712.2"/>
		<line class="st1" x1="5.7" y1="1818.5" x2="97.7" y2="1818.5"/>
	</g>
	<g>
		<line class="st1" x1="5.7" y1="11.7" x2="150.6" y2="11.7"/>
		<line class="st1" x1="5.7" y1="649.5" x2="150.6" y2="649.5"/>
		<line class="st1" x1="5.7" y1="1287.1" x2="150.6" y2="1287.1"/>
		<line class="st1" x1="5.7" y1="1924.7" x2="150.6" y2="1924.7"/>
	</g>
</g>
</svg>
