<?xml version="1.0" encoding="utf-8"?>
<!-- Generator: Adobe Illustrator 28.2.0, SVG Export Plug-In . SVG Version: 6.00 Build 0)  -->
<svg version="1.1" id="Layer_1" xmlns="http://www.w3.org/2000/svg" xmlns:xlink="http://www.w3.org/1999/xlink" x="0px" y="0px"
	 viewBox="0 0 2000 2000" style="enable-background:new 0 0 2000 2000;" xml:space="preserve">
<style type="text/css">
	.st0{fill:#000000;}
</style>
<g>
	<path class="st0" d="M1516.77,372.53c-63.19,0-114.43,51.24-114.43,114.43c0,63.2,51.24,114.44,114.43,114.44
		c63.2,0,114.44-51.24,114.44-114.44C1631.22,423.77,1579.98,372.53,1516.77,372.53z"/>
	<path class="st0" d="M1008.02,519.29c-265.07,0-480.72,215.64-480.72,480.71c0,265.06,215.65,480.71,480.72,480.71
		c265.06,0,480.71-215.65,480.71-480.71C1488.73,734.93,1273.07,519.29,1008.02,519.29z M1008.02,1307.93
		c-169.8,0-307.94-138.13-307.94-307.93s138.14-307.93,307.94-307.93c169.79,0,307.92,138.13,307.92,307.93
		S1177.81,1307.93,1008.02,1307.93z"/>
	<path class="st0" d="M1389.65,1976H610.32C287.02,1976,24,1712.98,24,1389.68V610.32C24,287.01,287.02,24,610.32,24h779.33
		C1712.95,24,1976,287.01,1976,610.32v779.36C1976,1712.98,1712.95,1976,1389.65,1976z M610.32,207.65
		c-222.05,0-402.68,180.62-402.68,402.67v779.36c0,222.05,180.63,402.68,402.68,402.68h779.33c222.05,0,402.71-180.63,402.71-402.68
		V610.32c0-222.05-180.65-402.67-402.71-402.67H610.32z"/>
</g>
</svg>
