<?xml version="1.0" encoding="utf-8"?>
<!-- Generator: Adobe Illustrator 28.2.0, SVG Export Plug-In . SVG Version: 6.00 Build 0)  -->
<svg version="1.1" id="Layer_1" xmlns="http://www.w3.org/2000/svg" xmlns:xlink="http://www.w3.org/1999/xlink" x="0px" y="0px"
	 viewBox="0 0 2000 2000" style="enable-background:new 0 0 2000 2000;" xml:space="preserve">
<style type="text/css">
	.st0{fill:#000000;}
</style>
<path class="st0" d="M463.2,1980.7H50.2V741.9h412.9V1980.7z M256.7,501C123.7,497.2,19,386.3,22.8,253.3
	c3.8-133,114.7-237.7,247.7-233.9c130.3,3.7,233.9,110.4,234,240.7C502.2,394.9,391.5,502.5,256.7,501z M1977.3,1980.7h-412.9
	v-652.5c0-195.5-82.6-265.7-190-265.7c-132,8.8-231.9,122.9-223.1,254.9c0,0.4,0.1,0.8,0.1,1.1c-0.7,6.4-0.7,12.9,0,19.3v642.8
	H738.5V741.9h399.2v178.9c81.9-124.6,222.7-197.6,371.7-192.7c213.4,0,462.5,118.4,462.5,503.8L1977.3,1980.7z"/>
</svg>
