<?xml version="1.0" encoding="utf-8"?>
<!-- Generator: Adobe Illustrator 28.3.0, SVG Export Plug-In . SVG Version: 6.00 Build 0)  -->
<svg version="1.1" id="Layer_1" xmlns="http://www.w3.org/2000/svg" xmlns:xlink="http://www.w3.org/1999/xlink" x="0px" y="0px"
	 viewBox="0 0 273.8 37.6" style="enable-background:new 0 0 273.8 37.6;" xml:space="preserve">
<style type="text/css">
	.st0{fill-rule:evenodd;clip-rule:evenodd;fill:#00284f;}
</style>
<g>
	<path class="st0" d="M28.1,12C27.3,9.9,26,8,24.4,6.5c-1.6-1.5-3.5-2.8-5.6-3.6c-2.2-0.9-4.5-1.3-6.9-1.3H0V36h11.9
		c2.4,0,4.7-0.4,6.9-1.3c2.1-0.8,4-2,5.6-3.6c1.6-1.5,2.9-3.4,3.7-5.5C29.9,21.3,29.9,16.4,28.1,12 M21.9,23.1
		c-1.1,2.6-3.2,4.7-5.8,5.8c-1.3,0.6-2.8,0.9-4.2,0.9H6.5V7.9h5.4c1.5,0,2.9,0.3,4.2,0.9c2.6,1.1,4.7,3.2,5.8,5.8
		C23.1,17.3,23.1,20.4,21.9,23.1 M45.5,0L28.9,36h7.4l2.1-4.9h14.1l2.1,4.9h7.4L45.5,0z M41.1,25.1l4.3-10h0.2l4.3,10H41.1z
		 M90.4,19.9c1.3-1.9,2-4.2,1.9-6.5c0-1.6-0.3-3.2-0.9-4.7C90.8,7.3,89.9,6,88.8,5c-2.3-2.2-5.4-3.4-8.5-3.3H65.2V36h6.5V25.1h7
		L84.2,36h7.2l-6-12C87.4,23.1,89.2,21.7,90.4,19.9 M84.1,17.2c-0.5,0.5-1.1,0.9-1.7,1.2c-0.7,0.3-1.4,0.4-2.1,0.4h-8.6V7.9h8.6
		c0.7,0,1.4,0.1,2.1,0.4c0.6,0.3,1.2,0.7,1.7,1.2c0.5,0.5,0.9,1.1,1.2,1.7c0.6,1.4,0.6,2.9,0,4.3C85,16.1,84.6,16.7,84.1,17.2
		 M125.2,1.6h-8.2l-13.8,15.9V1.6h-6.3V36h6.3v-8.9l3-3.4L116.9,36h8.2l-14.9-17.2L125.2,1.6z"/>
	<path class="st0" d="M267.4,1.6l0,19.9h-0.2L246.9,0v36h6.5l0-19.9h0.2l20.3,21.6v-36H267.4z M227.2,0l-16.6,36h7.4l2.1-4.9h14.1
		l2.1,4.9h7.4L227.2,0z M222.8,25.1l4.3-10h0.2l4.3,10H222.8z M207.6,7.9V1.6h-25.1V36h25.1v-6.2h-18.7v-7.8h15.5v-6.3h-15.5V7.9
		H207.6z"/>
	<path class="st0" d="M168.7,29.1c-3.2,1.8-6.9,2-10.3,0.6c-0.3-0.1-0.5-0.2-0.8-0.4c3.6-5.1,4.4-11.8,1.9-17.5
		c-0.5-1.2-1.1-2.3-1.9-3.3c0.2-0.1,0.5-0.2,0.7-0.3c5.3-2.2,11.4-0.3,14.4,4.5l5.3-3.3c-0.8-1.3-1.7-2.4-2.8-3.4
		c-1.1-1-2.3-1.9-3.6-2.7c-1.3-0.7-2.7-1.3-4.2-1.7c-1.5-0.4-3-0.6-4.6-0.6c-2.4,0-4.9,0.5-7.1,1.4c-1.1,0.4-2.1,0.9-3,1.6
		c-0.9-0.6-2-1.1-3-1.6c-4.6-1.8-9.7-1.8-14.3,0c-2.2,0.9-4.1,2.2-5.8,3.8c-7,6.9-7.2,18.2-0.4,25.2c0.1,0.1,0.2,0.2,0.4,0.4
		c1.7,1.6,3.7,2.9,5.8,3.8c4.6,1.8,9.7,1.8,14.3,0c1.1-0.4,2.1-0.9,3-1.6c1,0.6,2,1.1,3,1.6c2.3,0.9,4.7,1.4,7.1,1.4
		c1.5,0,3.1-0.2,4.6-0.6c1.5-0.4,2.9-1,4.2-1.7c1.3-0.7,2.5-1.6,3.6-2.6c1.1-1,2-2.2,2.8-3.5l-5.3-3.3
		C171.8,26.7,170.4,28.1,168.7,29.1 M147.2,29.6c-1.4,0.6-3,0.9-4.6,0.9c-1.6,0-3.1-0.3-4.5-0.9c-4.3-1.9-7.1-6.1-7.1-10.8
		c0-1.6,0.3-3.1,0.9-4.6c1.2-2.8,3.4-5,6.2-6.2c1.4-0.6,3-0.9,4.5-0.9c1.8,0,3.6,0.4,5.3,1.3c-4.5,6.2-4.5,14.7,0,20.9
		C147.7,29.4,147.5,29.5,147.2,29.6 M153.4,23.4c-0.2,0.4-0.4,0.8-0.6,1.2c-0.2-0.4-0.4-0.8-0.6-1.2c-1.2-2.9-1.2-6.2,0-9.1
		c0.2-0.4,0.4-0.8,0.6-1.2c0.2,0.4,0.4,0.8,0.6,1.2C154.7,17.2,154.7,20.5,153.4,23.4"/>
</g>
</svg>
